<svg width="580" height="580" viewBox="0 0 580 580" fill="none" xmlns="http://www.w3.org/2000/svg">
<path d="M386.183 61.0527H193.817L0 254.821H54.9792L221.294 88.5544L387.585 254.845H580L386.183 61.0769V61.0527ZM374.293 286.987L221.294 133.964L96.9083 258.325V378.844C96.9147 387.361 100.301 395.526 106.322 401.548C112.344 407.57 120.51 410.956 129.026 410.962H275.887L387.947 523.023V410.962H450.732C459.257 410.962 467.432 407.576 473.46 401.548C479.488 395.52 482.874 387.345 482.874 378.82V286.963H374.269L374.293 286.987Z" fill="#FFA14D"/>
<path d="M389.211 255.658H580L389.211 61.0527H194.605L0 255.658H53.4211L221.316 87.7633L389.211 255.658Z" fill="#2063F0"/>
</svg>
